<svg xmlns="http://www.w3.org/2000/svg" xmlns:xlink="http://www.w3.org/1999/xlink" width="128" height="15" viewBox="0 0 128 15">
  <defs>
    <clipPath id="clip-path">
      <rect id="Rectangle_1" data-name="Rectangle 1" width="128" height="15" transform="translate(-0.602 0.229)" fill="#fff"/>
    </clipPath>
  </defs>
  <g id="Mask_Group_1" data-name="Mask Group 1" transform="translate(0.602 -0.229)" clip-path="url(#clip-path)">
    <path id="Path_9365" data-name="Path 9365" d="M67.243,45.062a1.364,1.364,0,0,1-1.177.654H62.309a.07.07,0,0,1-.063-.039.074.074,0,0,1,0-.077l5.572-8.653a2.049,2.049,0,0,1,1.767-.982h5.906a2.049,2.049,0,0,1,1.767.982L82.83,45.6a.074.074,0,0,1,0,.077.07.07,0,0,1-.063.039H79.012a1.367,1.367,0,0,1-1.178-.654L76.4,42.838a.169.169,0,0,0-.148-.082h-5.8a.069.069,0,0,1-.063-.04.077.077,0,0,1,0-.076l.9-1.394a.174.174,0,0,1,.148-.082h3.753a.07.07,0,0,0,.062-.039.072.072,0,0,0,0-.076l-2.034-3.16a.683.683,0,0,0-.589-.327h-.181a.683.683,0,0,0-.589.327ZM61.08,41.042v4.487a.183.183,0,0,1-.179.188H48.289c-7.25,0-7.139-4.365-7.139-4.876s-.112-4.876,7.139-4.876H60.9a.183.183,0,0,1,.179.188V37.4a.183.183,0,0,1-.178.189h-11c-3.313,0-3.981,1.7-3.981,3.272s.667,3.273,3.981,3.273H56.46a.185.185,0,0,0,.181-.189h0v-2.9a.184.184,0,0,1,.181-.188H60.9a.183.183,0,0,1,.179.188h0Zm72.84-.923h10.815a.184.184,0,0,1,.179.188v1.077a.184.184,0,0,1-.179.188H133.921a.41.41,0,0,1-.395-.41v-.628a.4.4,0,0,1,.39-.418h.007Zm-7.595.726c0-.513-.112-4.876,7.138-4.876h12.428a.184.184,0,0,1,.181.188V37.4a.184.184,0,0,1-.181.188H135.077c-3.3,0-3.976,1.693-3.981,3.259s.677,3.259,3.981,3.259h10.815a.184.184,0,0,1,.181.188v1.237a.184.184,0,0,1-.181.188H133.464c-7.251,0-7.139-4.366-7.139-4.876ZM84.183,45.721h4.083a.185.185,0,0,0,.181-.185c.031-2.583,0-5.184,0-7.769a.183.183,0,0,1,.179-.188h6.562c3.314,0,3.981,1.135,3.981,2.183s-.668,2.183-3.981,2.183H90.334a.186.186,0,0,0-.181.189v1.242a.184.184,0,0,0,.181.188h6.46c7.25,0,7.139-3.4,7.139-3.8s.113-3.8-7.139-3.8H84.182A.184.184,0,0,0,84,36.15v9.379a.184.184,0,0,0,.179.188Zm21.06,0h4.082a.185.185,0,0,0,.181-.185c.031-2.583,0-5.184,0-7.769a.184.184,0,0,1,.181-.188h6.563c3.314,0,3.981,1.135,3.981,2.183s-.668,2.183-3.981,2.183H111.4a.185.185,0,0,0-.181.189h0v1.242a.184.184,0,0,0,.181.188h6.46c7.25,0,7.139-3.4,7.139-3.8s.113-3.8-7.139-3.8H105.251a.184.184,0,0,0-.181.188v9.379a.184.184,0,0,0,.172.188Zm-79.235-.654a1.364,1.364,0,0,1-1.178.654H21.073a.07.07,0,0,1-.063-.039.074.074,0,0,1,0-.077l5.572-8.653a2.049,2.049,0,0,1,1.767-.982h5.907a2.049,2.049,0,0,1,1.767.982L41.6,45.605a.074.074,0,0,1,0,.077.07.07,0,0,1-.063.039H37.774a1.365,1.365,0,0,1-1.178-.654l-1.434-2.224a.171.171,0,0,0-.148-.082H29.222a.069.069,0,0,1-.063-.04.077.077,0,0,1,0-.076l.9-1.394a.171.171,0,0,1,.148-.082h3.754a.07.07,0,0,0,.063-.039.077.077,0,0,0,0-.076l-2.036-3.16a.683.683,0,0,0-.589-.327h-.181a.683.683,0,0,0-.589.327Z" transform="translate(-20.486 -32.968)" fill="#fff" fill-rule="evenodd"/>
  </g>
</svg>
