<svg xmlns="http://www.w3.org/2000/svg" width="116.24" height="46.114" viewBox="0 0 116.24 46.114">
  <g id="Clip_path_group" data-name="Clip path group" transform="translate(-0.052 -0.058)">
    <path id="Path_174720" data-name="Path 174720" d="M39.921,1.846,19.87.31.192,1.774S.052,6.083.052,11.42c0,27.339,19.943,34.621,19.943,34.621s20.068-7.212,20.068-34.552c0-5.336-.139-9.644-.139-9.644" transform="translate(0 -0.071)" fill="#fff"/>
    <path id="Path_174721" data-name="Path 174721" d="M22.969,24.424a24.542,24.542,0,0,0-8.876,1.864,1.477,1.477,0,0,1-.019-1.04A.624.624,0,1,0,14.015,24l-.091.016-.105.021-.1.039-.039.017-.072.053-.072.058a2.145,2.145,0,0,0-.483,2.272.822.822,0,0,0-.461.561.775.775,0,0,0-.634-.053.811.811,0,0,0-.471.581.763.763,0,0,0-.639-.067.786.786,0,0,0-.464.6.749.749,0,0,0-.648-.081.777.777,0,0,0-.451.615.719.719,0,0,0-.659-.1.981.981,0,0,0-.36,1.3c.216.552.725.883,1.145.72A.734.734,0,0,0,9.838,30a.768.768,0,0,0,.72.126.749.749,0,0,0,.432-.532.784.784,0,0,0,.707.1.764.764,0,0,0,.443-.519.8.8,0,0,0,.7.091.786.786,0,0,0,.447-.5.821.821,0,0,0,.7.076l.111-.057a1.3,1.3,0,0,1-.061,1h-.022a.63.63,0,1,0,.3,1.168l.043-.017a1.847,1.847,0,0,0,.8-1.153,2.684,2.684,0,0,0-.117-1.527,20.712,20.712,0,0,1,5.418-.746,15.254,15.254,0,0,1,5.627.964,1.893,1.893,0,0,1,2.3-1.03,1.925,1.925,0,0,1,.412,2.563l1.09,1.025H36.36v-.114c0-1.009-2.328-6.185-13.391-6.491" transform="translate(-2.274 -6.723)"/>
    <path id="Path_174722" data-name="Path 174722" d="M23.852,36.807H23.66A24.152,24.152,0,0,0,16.63,38.3a1.225,1.225,0,0,1-.039-.865.531.531,0,0,0-.06-1.06l-.077.012-.091.018-.078.031-.038.016-.065.048-.052.045a1.768,1.768,0,0,0-.384,1.956l-.066.019a.7.7,0,0,0-.4.465.663.663,0,0,0-.527-.033.685.685,0,0,0-.4.475.648.648,0,0,0-.528-.045.665.665,0,0,0-.394.486.629.629,0,0,0-.535-.055.648.648,0,0,0-.382.5.611.611,0,0,0-.548-.072.593.593,0,0,0-.322.32,1.048,1.048,0,0,0,.012.792.837.837,0,0,0,.978.612.618.618,0,0,0,.36-.455.656.656,0,0,0,.6.094.621.621,0,0,0,.36-.437.663.663,0,0,0,.595.08.64.64,0,0,0,.373-.424.677.677,0,0,0,.582.066.663.663,0,0,0,.377-.414.7.7,0,0,0,.58.054l.153-.087a.961.961,0,0,1-.072.653h-.007a.532.532,0,1,0,0,1.063.564.564,0,0,0,.258-.068l.036-.016a1.537,1.537,0,0,0,.664-.954,1.93,1.93,0,0,0-.056-1.107,17.148,17.148,0,0,1,4.608-.671,10.3,10.3,0,0,1,3.716.6,1.781,1.781,0,0,1,2.165-.931,1.763,1.763,0,0,1,.475,2.259l.989.865h5.2v-.113c0-.808-1.865-4.971-10.732-5.216" transform="translate(-3.235 -10.197)"/>
    <path id="Path_174723" data-name="Path 174723" d="M24.68,47.53h-.087a14.559,14.559,0,0,0-5.139,1.018l-.144.05a.831.831,0,0,1-.042-.726.472.472,0,0,0,.421-.461.478.478,0,0,0-.485-.468l-.062.012-.086.017L18.994,47l-.028.012-.06.043-.05.042a1.518,1.518,0,0,0-.331,1.641h-.009a.565.565,0,0,0-.32.365.537.537,0,0,0-.415-.023.543.543,0,0,0-.317.375.509.509,0,0,0-.419-.034.539.539,0,0,0-.315.383.5.5,0,0,0-.423-.04A.532.532,0,0,0,16,50.15a.493.493,0,0,0-.425-.048.48.48,0,0,0-.269.267.849.849,0,0,0,.008.645.686.686,0,0,0,.808.5.5.5,0,0,0,.288-.349.482.482,0,0,0,.76-.278.53.53,0,0,0,.464.057.519.519,0,0,0,.3-.331.508.508,0,0,0,.761-.27.57.57,0,0,0,.459.035l.089-.048a.855.855,0,0,1-.039.6.465.465,0,1,0,.227.873l.039-.017a1.325,1.325,0,0,0,.566-.813,1.64,1.64,0,0,0-.058-.984,13.171,13.171,0,0,1,3.45-.5,7.455,7.455,0,0,1,2.443.36,1.466,1.466,0,0,1,1.77-.692,1.457,1.457,0,0,1,.432,1.825l.747.6h3.938V51.47c0-.805-1.451-3.785-8.079-3.94" transform="translate(-4.265 -13.165)"/>
    <path id="Path_174724" data-name="Path 174724" d="M25.244,13.941c-2.253,0-4.017-.367-4.017-.838,0-.576,2.016-.836,4.017-.836,1.933,0,4.017.262,4.017.836C29.261,13.574,27.5,13.941,25.244,13.941Zm5.984-7.1a.886.886,0,0,0-1.176.428.853.853,0,0,0-.081.336l-.479.174.319.879c-.375.638-.8,1.271-1.054,1.634a11.791,11.791,0,0,0-2.685-.455c-.058-.307-.251-1.365-.348-2.395l.661-.659-.36-.36a.824.824,0,0,0,.072-.338.885.885,0,1,0-1.77,0,.852.852,0,0,0,.072.338l-.36.36.662.663c-.092.988-.3,2.089-.353,2.4a10.1,10.1,0,0,0-2.613.45c-.249-.36-.675-.991-1.052-1.635L21,7.778l-.48-.174a.864.864,0,0,0-.079-.336.885.885,0,0,0-1.6.748.858.858,0,0,0,.205.277l-.172.479.883.322a30.841,30.841,0,0,1,.858,4c.171.947,2.121,1.634,4.638,1.634,2.549,0,4.451-.671,4.629-1.634.02-.117.05-.3.085-.522a18.161,18.161,0,0,1,.775-3.481l.888-.324-.173-.479a.847.847,0,0,0,.2-.277.888.888,0,0,0-.426-1.177" transform="translate(-5.252 -1.443)"/>
    <path id="Path_174725" data-name="Path 174725" d="M71.6,13.729c-.017-.282-.729-7.558-.729-7.558a12.941,12.941,0,0,1-.05-1.379h-.035s-.116.648-.331,1.379c0,0-2.042,7.176-2.175,7.558h-1.2c-.116-.333-2.16-7.575-2.16-7.575-.2-.715-.333-1.362-.333-1.362h-.032a13.094,13.094,0,0,1-.05,1.362s-.713,7.242-.729,7.575H62L63.281,2.3h2.125l2.041,7.326c.2.731.3,1.28.3,1.28h.032a10.759,10.759,0,0,1,.3-1.28L70.187,2.3h2.125l1.279,11.43Z" transform="translate(-17.395 -0.63)" fill="#fff"/>
    <path id="Path_174726" data-name="Path 174726" d="M80.726,4.352h2.026v8.955H80.726Zm1.012-1.545a1.061,1.061,0,0,1-1.112-1,1.117,1.117,0,0,1,2.224,0,1.05,1.05,0,0,1-1.112,1" transform="translate(-22.624 -0.207)" fill="#fff"/>
    <path id="Path_174727" data-name="Path 174727" d="M91.474,5.325a3.182,3.182,0,0,0-.9-.116c-1.76,0-2.356,1.513-2.356,3.406,0,2.027.648,3.356,2.207,3.356a1.943,1.943,0,0,0,1.046-.2Zm-1.1,7.942c-2.64,0-4.167-1.695-4.167-4.539,0-2.924,1.594-4.669,3.919-4.669a4.81,4.81,0,0,1,1.345.166V.058H93.5v12.56a6.382,6.382,0,0,1-3.121.648" transform="translate(-24.192)" fill="#fff"/>
    <path id="Path_174728" data-name="Path 174728" d="M104.144,5.325a3.185,3.185,0,0,0-.9-.116c-1.76,0-2.358,1.513-2.358,3.406,0,2.027.648,3.356,2.208,3.356a1.945,1.945,0,0,0,1.046-.2Zm-1.1,7.942c-2.639,0-4.166-1.695-4.166-4.539,0-2.924,1.594-4.669,3.918-4.669a4.816,4.816,0,0,1,1.345.166V.058h2.025v12.56A6.382,6.382,0,0,1,103.047,13.267Z" transform="translate(-27.75)" fill="#fff"/>
    <path id="Path_174729" data-name="Path 174729" d="M114.289.058h-2.026V13.1h2.026Z" transform="translate(-31.508)" fill="#fff"/>
    <path id="Path_174730" data-name="Path 174730" d="M121.485,6.755c-1.179,0-1.992.963-1.944,3.107l3.7-.564c0-1.811-.647-2.542-1.76-2.542m-1.827,4.137c.167,1.662.962,2.492,2.441,2.492a4.863,4.863,0,0,0,2.256-.5l.482,1.28a6.105,6.105,0,0,1-2.952.63c-2.54,0-4.15-1.645-4.15-4.668,0-2.925,1.477-4.62,3.816-4.62,2.376,0,3.672,1.579,3.587,4.586Z" transform="translate(-33.044 -1.53)" fill="#fff"/>
    <path id="Path_174731" data-name="Path 174731" d="M132.225,14.776a4.54,4.54,0,0,1-2.474-.648l.532-1.3a2.78,2.78,0,0,0,1.676.515,1.263,1.263,0,0,0,1.379-1.262c0-.764-.4-1.13-1.312-1.478-1.693-.648-2.043-1.579-2.043-2.509A2.639,2.639,0,0,1,132.823,5.5a4.11,4.11,0,0,1,2.324.631l-.5,1.179a2.369,2.369,0,0,0-1.427-.5A1.171,1.171,0,0,0,131.943,8c0,.731.548,1.1,1.328,1.412,1.743.7,2.142,1.594,2.142,2.642a2.889,2.889,0,0,1-3.186,2.724" transform="translate(-36.418 -1.527)" fill="#fff"/>
    <path id="Path_174732" data-name="Path 174732" d="M143.383,6.755c-1.18,0-1.994.963-1.944,3.107l3.7-.564C145.14,7.486,144.492,6.755,143.383,6.755Zm-1.827,4.138c.165,1.662.963,2.492,2.44,2.492a4.877,4.877,0,0,0,2.258-.5l.481,1.28a6.113,6.113,0,0,1-2.952.63c-2.541,0-4.151-1.645-4.151-4.668,0-2.925,1.477-4.62,3.816-4.62,2.376,0,3.672,1.579,3.586,4.586Z" transform="translate(-39.192 -1.53)" fill="#fff"/>
    <path id="Path_174733" data-name="Path 174733" d="M156.438,14.7l-1.676-3.257h-.034l-1.71,3.257H150.96l2.77-4.636L151.24,5.741h2.127l1.512,2.923h.033l1.577-2.924H158.4l-2.54,4.186,2.808,4.768Z" transform="translate(-42.373 -1.596)" fill="#fff"/>
    <path id="Path_174734" data-name="Path 174734" d="M66.347,36.389a3.467,3.467,0,0,1-3.768-3.506v-8.11h2.108v8.091a1.728,1.728,0,0,0,1.743,1.893,1.705,1.705,0,0,0,1.728-1.893V24.773h1.959v8.107a3.467,3.467,0,0,1-3.769,3.506" transform="translate(-17.557 -6.94)" fill="#fff"/>
    <path id="Path_174735" data-name="Path 174735" d="M81.227,37.1V30.757c0-.731-.331-1.495-1.61-1.495a3.352,3.352,0,0,0-1.395.25V37.1H76.2V28.63a8.221,8.221,0,0,1,3.5-.648c2.673,0,3.553,1.3,3.553,2.738V37.1Z" transform="translate(-21.38 -7.839)" fill="#fff"/>
    <path id="Path_174736" data-name="Path 174736" d="M89.1,26.828h2.025v8.954H89.1Zm1.013-1.545a1.009,1.009,0,1,1,1.112-1,1.06,1.06,0,0,1-1.112,1Z" transform="translate(-25.002 -6.518)" fill="#fff"/>
    <path id="Path_174737" data-name="Path 174737" d="M98.836,37.17H96.91l-2.921-8.954h2.16L97.724,34a6.384,6.384,0,0,1,.216,1.231h.032A7.879,7.879,0,0,1,98.2,34l1.611-5.78h1.892Z" transform="translate(-26.376 -7.907)" fill="#fff"/>
    <path id="Path_174738" data-name="Path 174738" d="M109.667,29.23c-1.18,0-1.992.963-1.944,3.106l3.7-.564c0-1.811-.648-2.542-1.76-2.542m-1.825,4.136c.165,1.662.963,2.494,2.44,2.494a4.879,4.879,0,0,0,2.258-.5l.484,1.275a6.1,6.1,0,0,1-2.952.633c-2.541,0-4.151-1.645-4.151-4.669,0-2.924,1.477-4.618,3.816-4.618,2.372,0,3.668,1.579,3.585,4.586Z" transform="translate(-29.726 -7.84)" fill="#fff"/>
    <path id="Path_174739" data-name="Path 174739" d="M122.687,29.483a2.432,2.432,0,0,0-1.89.067v7.558h-2.026V28.634a8.777,8.777,0,0,1,4.315-.63Z" transform="translate(-33.335 -7.844)" fill="#fff"/>
    <path id="Path_174740" data-name="Path 174740" d="M128.328,37.251a4.542,4.542,0,0,1-2.475-.648l.533-1.3a2.786,2.786,0,0,0,1.676.515,1.263,1.263,0,0,0,1.378-1.263c0-.763-.4-1.13-1.312-1.478-1.694-.648-2.043-1.578-2.043-2.509a2.64,2.64,0,0,1,2.839-2.594,4.119,4.119,0,0,1,2.324.63l-.5,1.181a2.363,2.363,0,0,0-1.427-.5,1.172,1.172,0,0,0-1.279,1.179c0,.732.549,1.1,1.328,1.413,1.743.7,2.141,1.6,2.141,2.642a2.888,2.888,0,0,1-3.186,2.724" transform="translate(-35.323 -7.837)" fill="#fff"/>
    <path id="Path_174741" data-name="Path 174741" d="M136.286,26.828h2.026v8.954h-2.026Zm1.013-1.545a1.008,1.008,0,1,1,1.111-1,1.049,1.049,0,0,1-1.111,1Z" transform="translate(-38.253 -6.518)" fill="#fff"/>
    <path id="Path_174742" data-name="Path 174742" d="M144.975,36.277a2.262,2.262,0,0,1-2.455-2.425V28.52h-1v-1.3h1V25.245l2.025-.566v2.542H146v1.3h-1.461v5.233c0,.7.282,1.163.98,1.163a1.557,1.557,0,0,0,.482-.083V36.1a2.671,2.671,0,0,1-1.031.182" transform="translate(-39.724 -6.914)" fill="#fff"/>
    <path id="Path_174743" data-name="Path 174743" d="M152.729,40.742h-2.142l1.46-3.572L149.1,28.216h2.16l1.544,5.8a5.648,5.648,0,0,1,.183,1.279h.033a7.813,7.813,0,0,1,.249-1.279l1.661-5.8h1.891Z" transform="translate(-41.85 -7.907)" fill="#fff"/>
    <path id="Path_174744" data-name="Path 174744" d="M65.639,48.771a3.472,3.472,0,0,0-1.411.234v9.252a4.1,4.1,0,0,0,1.427.216c2.3,0,3.188-1.71,3.188-4.935C68.843,50.4,67.815,48.771,65.639,48.771Zm.1,10.783a6.485,6.485,0,0,1-3.024-.616V48.419a6.362,6.362,0,0,1,2.952-.63c3.154,0,4.752,2.226,4.752,5.764,0,3.522-1.444,6-4.68,6" transform="translate(-17.595 -13.402)" fill="#fff"/>
    <path id="Path_174745" data-name="Path 174745" d="M79.483,60.6c-2.241,0-3.168-1.131-3.168-2.924V51.466h1.462v6.262a1.669,1.669,0,0,0,1.792,1.844,3,3,0,0,0,1.607-.366V51.466h1.46v8.422A6.321,6.321,0,0,1,79.483,60.6Z" transform="translate(-21.414 -14.435)" fill="#fff"/>
    <path id="Path_174746" data-name="Path 174746" d="M91.285,50.618a2.683,2.683,0,0,0-1.461.349v6.861a2.955,2.955,0,0,0,1.262.216c1.842,0,2.572-1.545,2.572-3.8,0-1.96-.681-3.62-2.376-3.62m-.233,8.373a5.029,5.029,0,0,1-2.673-.632V45.784h1.444v4.384a3.6,3.6,0,0,1,1.825-.416c2.06,0,3.469,1.729,3.469,4.436,0,2.874-1.41,4.8-4.067,4.8" transform="translate(-24.801 -12.839)" fill="#fff"/>
    <path id="Path_174747" data-name="Path 174747" d="M104.915,55.272c-2.258.282-3.6.764-3.6,2.574,0,1.3.8,1.828,2.125,1.828a3.25,3.25,0,0,0,1.477-.3Zm-1.592,5.249c-2.324,0-3.4-1.014-3.4-2.642,0-2.374,2.225-3.073,5-3.355v-.549c0-1.378-.83-1.777-1.976-1.777a4.983,4.983,0,0,0-2.16.564l-.348-.865a5.914,5.914,0,0,1,2.736-.664c1.661,0,3.121.715,3.121,2.908v5.746a6.244,6.244,0,0,1-2.97.633" transform="translate(-28.041 -14.37)" fill="#fff"/>
    <path id="Path_174748" data-name="Path 174748" d="M112.18,50.16h1.461v8.954H112.18Zm.733-1.729a.807.807,0,1,1,.845-.8.836.836,0,0,1-.845.8Z" transform="translate(-31.475 -13.13)" fill="#fff"/>
  </g>
</svg>
